HIERARCHY
ROOT Hips
{
	OFFSET	0.00	0.00	0.00
	CHANNELS 6 Xposition Yposition Zposition Zrotation Xrotation Yrotation
	JOINT Spine
	{
		OFFSET	 0.00	0.01	 0.00
		CHANNELS 3 Zrotation Xrotation Yrotation
		JOINT Spine1
		{
			OFFSET	 0.00	 2.45913012437421	 0.00
			CHANNELS 3 Zrotation Xrotation Yrotation
            JOINT Neck
            {
                OFFSET	 0.00	 2.48462964506057	 0.00
                CHANNELS 3 Zrotation Xrotation Yrotation
                JOINT Head
                {
                    OFFSET	 0.00	 0.927524780924562	 0.00
                    CHANNELS 3 Zrotation Xrotation Yrotation
                    End Site 
                    {
                        OFFSET	 0.00	 1.14999962169752	 0.00
                    }
                }
            }
			JOINT LeftShoulder
			{
				OFFSET	 0.00	 2.48462964506057	 0.00
				CHANNELS 3 Zrotation Xrotation Yrotation
				JOINT LeftUpArm
				{
					OFFSET	 0.00	 1.24881979654096	 0.00
					CHANNELS 3 Zrotation Xrotation Yrotation
					JOINT LeftForeArm
					{
						OFFSET	 0.00	2.59758046908119	 0.00
						CHANNELS 3 Zrotation Xrotation Yrotation
						JOINT LeftHand
						{
							OFFSET	 0.00	2.45542024364365	 0.00
							CHANNELS 3 Zrotation Xrotation Yrotation
							JOINT LeftHandThumb 
							{
								OFFSET	 0.00	0.00	 0.00
								CHANNELS 3 Zrotation Xrotation Yrotation
								End Site
								{
									OFFSET	 0.00	0.00	1.00000003353624
								}
							}
							JOINT L_Wrist_End 
							{
								OFFSET	 0.00	0.99999967115358	 0.00
								CHANNELS 3 Zrotation Xrotation Yrotation
								End Site 
								{
									OFFSET	 0.00	 0.00	 0.00
								}
							}
						}
					}
				}
			}
			JOINT RightShoulder
			{
				OFFSET	 0.00	 2.48462964506057	 0.00
				CHANNELS 3 Zrotation Xrotation Yrotation
				JOINT RightUpArm
				{
					OFFSET	 0.00	 1.24881979654096	 0.00
					CHANNELS 3 Zrotation Xrotation Yrotation
					JOINT RightForeArm
					{
						OFFSET	 0.00	2.59758046908119	 0.00
						CHANNELS 3 Zrotation Xrotation Yrotation
						JOINT RightHand
						{
							OFFSET	 0.00	2.45542024364365	 0.00
							CHANNELS 3 Zrotation Xrotation Yrotation
							JOINT RightHandThumb 
							{
								OFFSET	 0.00	0.00	 0.00
								CHANNELS 3 Zrotation Xrotation Yrotation
								End Site
								{
									OFFSET	 0.00	0.00	1.00000003353624
								}
							}
							JOINT R_Wrist_End 
							{
								OFFSET	 0.00	0.99999967115358	 0.00
								CHANNELS 3 Zrotation Xrotation Yrotation
								End Site 
								{
									OFFSET	 0.00	 0.00	 0.00
								}
							}
						}
					}
				}
			}
		}
	}
	JOINT LeftUpLeg
	{
		OFFSET	 1.2719394002717	 0.00	 0.00
		CHANNELS 3 Zrotation Xrotation Yrotation
		JOINT LeftLowLeg
		{
			OFFSET	 0.00	-4.3429100912261	 0.00
			CHANNELS 3 Zrotation Xrotation Yrotation
			JOINT LeftFoot
			{
				OFFSET	 0.00	-4.48767017425826	 0.00
				CHANNELS 3 Zrotation Xrotation Yrotation
				JOINT LeftToeBase
                {
                    OFFSET	 0.00	0.00	 1.51507020887566
                    CHANNELS 3 Zrotation Xrotation Yrotation
                    End Site 
                    {
                        OFFSET	 0.00	0.00	 0.75000010571191
                    }
                }
			}
		}
	}
	JOINT RightUpLeg
	{
		OFFSET	 -1.2719393604653	 0.00	 0.00
		CHANNELS 3 Zrotation Xrotation Yrotation
		JOINT RightLowLeg
		{
			OFFSET	 0.00	-4.3429100912261	 0.00
			CHANNELS 3 Zrotation Xrotation Yrotation
			JOINT RightFoot
			{
				OFFSET	 0.00	-4.48767017425826	 0.00
				CHANNELS 3 Zrotation Xrotation Yrotation
				JOINT RightToeBase
                {
                    OFFSET	 0.00	0.00	 1.51507020887566
                    CHANNELS 3 Zrotation Xrotation Yrotation
                    End Site 
                    {
                        OFFSET	 0.00	0.00	 0.749999965609858
                    }
                }   
			}
		}
	}
}
MOTION 
Frames:	18 
Frame Time: 0.02 
 2.560169982910156 2.528979949951172 9.81885986328125 -144.638 84.2156 148.628 2.32739 -7.39212 -2.27801 -1.0987 5.20659 -2.43301 2.80321 36.1993 1.69186 10.5141 -50.8879 7.8771 -91.72657 -12.1377 -5.35553 -11.7563 1.6847 -29.5455 0.0 19.9691 0.0 31.1523 -6.53017 19.7214 0.0 0.0 0.0 0.0 0.0 0.0 99.66715 -11.5798 -0.212702 9.13242 -0.910791 35.1777 0.0 19.4672 0.0 -16.0618 -2.00346 -22.3789 0.0 0.0 0.0 0.0 0.0 0.0 4.26761 -5.03572 -2.43358 0.0 8.5064 0.0 9.03399 7.68214 -0.0376771 0.0 -36.204903 0.0 2.4366 -2.56895 5.1546 0.0 8.08118 0.0 9.4663 8.90295 -7.89233 0.0 -27.6459 0.0 
  2.56052001953125 2.5278700256347655 9.819010009765625 -144.626 84.215 148.611 2.33999 -7.3674 -2.29171 -1.112 5.17536 -2.45001 2.76882 36.2475 1.74496 10.5531 -50.9507 7.88963 -91.73193 -12.1765 -5.35703 -11.762 1.71666 -29.5314 0.0 19.957 0.0 31.1064 -6.54994 19.7605 0.0 0.0 0.0 0.0 0.0 0.0 99.68036 -11.5707 -0.258908 9.12001 -0.890471 35.2009 0.0 19.4385 0.0 -16.0512 -1.99121 -22.4114 0.0 0.0 0.0 0.0 0.0 0.0 4.26698 -5.02956 -2.44455 0.0 8.51035 0.0 9.02281 7.68317 -0.0271418 0.0 -36.2244 0.0 2.43676 -2.5647 5.16558 0.0 8.08418 0.0 9.47655 8.90641 -7.89534 0.0 -27.6567 0.0 
  2.5609500122070314 2.5268600463867186 9.819130249023438 -144.695 84.2132 148.662 2.3451 -7.36585 -2.29093 -1.11881 5.16955 -2.45039 2.75201 36.2741 1.7707 10.564 -50.9598 7.88696 -91.73418 -12.1652 -5.34288 -11.7782 1.71251 -29.567 0.0 19.9545 0.0 31.0557 -6.5292 19.7539 0.0 0.0 0.0 0.0 0.0 0.0 99.6814 -11.5686 -0.261529 9.12543 -0.886962 35.2369 0.0 19.4177 0.0 -16.0456 -2.00649 -22.4259 0.0 0.0 0.0 0.0 0.0 0.0 4.25998 -5.01827 -2.44613 0.0 8.49816 0.0 9.02604 7.68998 -0.00795965 0.0 -36.2146 0.0 2.43104 -2.56129 5.20231 0.0 8.07656 0.0 9.47731 8.9066 -7.91251 0.0 -27.663399 0.0 
  2.56114013671875 2.5256199645996094 9.819080200195312 -144.801 84.207 148.76 2.3467 -7.37636 -2.29552 -1.12963 5.16943 -2.45547 2.75449 36.2926 1.77703 10.5656 -50.9545 7.90444 -91.73156 -12.166 -5.32484 -11.7772 1.73634 -29.5429 0.0 19.9261 0.0 31.0676 -6.53576 19.8259 0.0 0.0 0.0 0.0 0.0 0.0 99.67784 -11.5701 -0.225141 9.14026 -0.893799 35.2112 0.0 19.4236 0.0 -15.9967 -2.03458 -22.4256 0.0 0.0 0.0 0.0 0.0 0.0 4.25415 -5.00843 -2.43861 0.0 8.47539 0.0 9.03351 7.69225 -0.0054657 0.0 -36.192398 0.0 2.42044 -2.55267 5.14765 0.0 8.04877 0.0 9.45876 8.91848 -7.86227 0.0 -27.6467 0.0 
  2.561409912109375 2.5242599487304687 9.819089965820313 -144.901 84.1928 148.852 2.35323 -7.38624 -2.29469 -1.13597 5.15574 -2.45614 2.75597 36.3069 1.78184 10.5782 -50.944 7.90522 -91.73637 -12.1626 -5.33072 -11.7664 1.76157 -29.4606 0.0 19.8964 0.0 31.0616 -6.56429 19.7126 0.0 0.0 0.0 0.0 0.0 0.0 99.686 -11.5759 -0.229502 9.12526 -0.913816 35.1697 0.0 19.4247 0.0 -15.9506 -2.0427 -22.3955 0.0 0.0 0.0 0.0 0.0 0.0 4.25475 -5.00739 -2.4085 0.0 8.45855 0.0 9.04097 7.69385 -0.0245772 0.0 -36.2041 0.0 2.41766 -2.55867 5.16131 0.0 8.04244 0.0 9.46484 8.91644 -7.86076 0.0 -27.6486 0.0 
  2.561719970703125 2.522989959716797 9.819000244140625 -145.013 84.1671 148.954 2.36105 -7.39764 -2.29637 -1.133 5.11784 -2.45979 2.72139 36.3269 1.82196 10.6055 -50.9386 7.85659 -91.71875 -12.1647 -5.31345 -11.8092 1.77316 -29.4534 0.0 19.9133 0.0 31.0724 -6.53102 19.7384 0.0 0.0 0.0 0.0 0.0 0.0 99.6666 -11.5791 -0.261919 9.135 -0.915854 35.1701 0.0 19.4121 0.0 -15.9703 -2.04109 -22.3929 0.0 0.0 0.0 0.0 0.0 0.0 4.26145 -5.02016 -2.33538 0.0 8.44794 0.0 9.04729 7.68142 -0.0755483 0.0 -36.222 0.0 2.42103 -2.57506 5.18885 0.0 8.03405 0.0 9.49137 8.910931 -7.87328 0.0 -27.6375 0.0 
  2.5619500732421874 2.5213600158691407 9.818989868164062 -145.209 84.1415 149.147 2.36433 -7.4145 -2.299 -1.1364 5.07473 -2.46361 2.72638 36.3478 1.82164 10.5944 -50.9013 7.85459 -91.70284 -12.1462 -5.29602 -11.864 1.75544 -29.5158 0.0 19.9765 0.0 31.0745 -6.53466 19.7244 0.0 0.0 0.0 0.0 0.0 0.0 99.65503 -11.5738 -0.270404 9.13877 -0.946603 35.1616 0.0 19.4086 0.0 -16.0047 -2.06778 -22.3674 0.0 0.0 0.0 0.0 0.0 0.0 4.26035 -5.03154 -2.29172 0.0 8.42779 0.0 9.04447 7.67633 -0.115884 0.0 -36.2113 0.0 2.41488 -2.58455 5.19448 0.0 8.00899 0.0 9.47528 8.9132805 -7.87787 0.0 -27.6364 0.0 
  2.5621099853515625 2.5197300720214844 9.819169921875 -145.46 84.1113 149.397 2.31142 -7.44679 -2.35266 -1.0346 5.06126 -2.50635 2.64306 36.3615 1.92159 10.5122 -50.875 7.83884 -91.7776 -12.2039 -5.30623 -11.8637 1.74631 -29.5561 0.0 19.9898 0.0 31.0337 -6.51448 19.7495 0.0 0.0 0.0 0.0 0.0 0.0 99.60518 -11.5267 -0.246629 9.13123 -0.937941 35.1779 0.0 19.4167 0.0 -16.0287 -2.06144 -22.3933 0.0 0.0 0.0 0.0 0.0 0.0 4.25309 -5.05188 -2.26824 0.0 8.41338 0.0 9.07209 7.68234 -0.121524 0.0 -36.1997 0.0 2.40536 -2.60227 5.17189 0.0 7.98641 0.0 9.47541 8.91975 -7.85494 0.0 -27.6394 0.0 
  2.563030090332031 2.5229200744628906 9.8193701171875 -146.282 83.9859 150.282 2.32561 -7.48746 -2.39168 -1.05821 4.92693 -2.55042 2.63093 36.407 1.9382 10.5224 -50.9077 7.84032 -91.78899 -12.1955 -5.30931 -11.8492 1.74851 -29.5341 0.0 19.9531 0.0 31.0331 -6.5081 19.6887 0.0 0.0 0.0 0.0 0.0 0.0 99.62908 -11.5094 -0.237224 9.10346 -0.974647 35.2109 0.0 19.439 0.0 -16.0077 -2.07197 -22.4264 0.0 0.0 0.0 0.0 0.0 0.0 4.22359 -5.27361 -2.3653 0.0 8.47644 0.0 9.08063 7.71286 -0.0698655 0.0 -36.2418 0.0 2.3802 -2.77497 5.06622 0.0 8.00372 0.0 9.49211 8.92188 -7.79897 0.0 -27.646 0.0 
  2.56343994140625 2.521060028076172 9.819450073242187 -146.511 83.9509 150.499 2.33454 -7.53032 -2.39719 -1.07181 4.91915 -2.55794 2.64903 36.4214 1.91737 10.5288 -50.931 7.86012 -91.77484 -12.1872 -5.30647 -11.8534 1.74981 -29.5619 0.0 19.8919 0.0 31.0322 -6.51958 19.7397 0.0 0.0 0.0 0.0 0.0 0.0 99.63356 -11.5259 -0.222279 9.08971 -0.95915 35.1978 0.0 19.433 0.0 -15.9849 -2.08186 -22.4082 0.0 0.0 0.0 0.0 0.0 0.0 4.21953 -5.29669 -2.39544 0.0 8.47109 0.0 9.05815 7.71243 -0.0487889 0.0 -36.2145 0.0 2.37702 -2.81109 5.10955 0.0 8.0127 0.0 9.51247 8.9074 -7.81969 0.0 -27.643799 0.0 
  2.562659912109375 2.5182400512695313 9.819180297851563 -146.345 83.9739 150.328 2.32022 -7.51131 -2.41045 -1.05803 4.91843 -2.5684 2.67679 36.4006 1.87756 10.5264 -50.9222 7.86025 -91.75408 -12.1876 -5.29542 -11.866 1.74655 -29.5898 0.0 19.8754 0.0 31.0373 -6.54223 19.6919 0.0 0.0 0.0 0.0 0.0 0.0 99.62632 -11.5247 -0.219564 9.08676 -0.979594 35.1957 0.0 19.4375 0.0 -15.9586 -2.08179 -22.391 0.0 0.0 0.0 0.0 0.0 0.0 4.22926 -5.24465 -2.40086 0.0 8.46203 0.0 9.06904 7.70034 -0.0321865 0.0 -36.2224 0.0 2.38777 -2.76526 5.12282 0.0 8.01043 0.0 9.50296 8.89739 -7.83118 0.0 -27.6386 0.0 
  2.5623300170898435 2.5157400512695314 9.8189697265625 -146.371 83.98 150.349 2.29753 -7.51266 -2.42737 -1.03457 4.91893 -2.58069 2.66641 36.3707 1.88503 10.5331 -50.9206 7.84224 -91.76776 -12.1838 -5.30616 -11.8399 1.72113 -29.6095 0.0 19.869 0.0 31.0299 -6.53518 19.7733 0.0 0.0 0.0 0.0 0.0 0.0 99.60246 -11.5197 -0.220662 9.08643 -0.99518 35.1754 0.0 19.4197 0.0 -15.9787 -2.06008 -22.383 0.0 0.0 0.0 0.0 0.0 0.0 4.22503 -5.22772 -2.42022 0.0 8.46941 0.0 9.06898 7.68567 -0.0087638 0.0 -36.2117 0.0 2.3844 -2.74397 5.12975 0.0 8.00538 0.0 9.51186 8.88394 -7.82388 0.0 -27.6473 0.0 
  2.562380065917969 2.513489990234375 9.818809814453125 -146.426 83.9696 150.394 2.3014 -7.52564 -2.42747 -1.04593 4.90913 -2.58177 2.69884 36.3508 1.84015 10.5384 -50.9131 7.84231 -91.74205 -12.1798 -5.29593 -11.8393 1.72011 -29.6096 0.0 19.8769 0.0 31.0439 -6.52768 19.7787 0.0 0.0 0.0 0.0 0.0 0.0 99.59452 -11.5374 -0.226177 9.07291 -0.992251 35.1737 0.0 19.3914 0.0 -15.9809 -2.07968 -22.4538 0.0 0.0 0.0 0.0 0.0 0.0 4.22053 -5.22593 -2.43852 0.0 8.4724 0.0 9.07694 7.68164 0.0426154 0.0 -36.231003 0.0 2.38505 -2.7337 5.13749 0.0 7.98429 0.0 9.49486 8.88628 -7.82978 0.0 -27.660301 0.0 
  2.5623599243164064 2.510740051269531 9.81864013671875 -146.448 83.9628 150.402 2.32046 -7.54602 -2.41508 -1.08591 4.90642 -2.5735 2.75725 36.3394 1.76726 10.5387 -50.8891 7.85754 -91.71985 -12.1644 -5.2929 -11.7923 1.71821 -29.5172 0.0 19.8894 0.0 31.0311 -6.52452 19.8271 0.0 0.0 0.0 0.0 0.0 0.0 99.60499 -11.5676 -0.220582 9.04801 -1.00333 35.0986 0.0 19.3829 0.0 -16.0261 -2.08654 -22.4736 0.0 0.0 0.0 0.0 0.0 0.0 4.22029 -5.21738 -2.46672 0.0 8.48338 0.0 9.06043 7.66444 0.086606 0.0 -36.2234 0.0 2.38995 -2.72489 5.18611 0.0 7.9845 0.0 9.49255 8.87492 -7.86014 0.0 -27.6641 0.0 
  2.562349853515625 2.5076199340820313 9.8185498046875 -146.481 83.9573 150.404 2.32112 -7.56805 -2.40923 -1.08971 4.88925 -2.56787 2.75751 36.3643 1.76775 10.5441 -50.888 7.85032 -91.70969 -12.166 -5.28777 -11.7571 1.71031 -29.4194 0.0 19.9194 0.0 31.0881 -6.50136 19.9927 0.0 0.0 0.0 0.0 0.0 0.0 99.58382 -11.575 -0.219347 9.04644 -1.02272 35.0799 0.0 19.4123 0.0 -16.0342 -2.089 -22.509 0.0 0.0 0.0 0.0 0.0 0.0 4.22253 -5.19684 -2.45018 0.0 8.48456 0.0 9.06497 7.64804 0.103969 0.0 -36.222702 0.0 2.39061 -2.70789 5.1673 0.0 7.96814 0.0 9.47658 8.87402 -7.82482 0.0 -27.6577 0.0 
  2.5624398803710937 2.504770050048828 9.81843017578125 -146.508 83.9534 150.413 2.32698 -7.5821 -2.4077 -1.10818 4.86542 -2.56795 2.77656 36.3797 1.74475 10.5425 -50.8814 7.85495 -91.69583 -12.1712 -5.29957 -11.7384 1.71229 -29.4694 0.0 19.9494 0.0 31.1089 -6.50492 19.8712 0.0 0.0 0.0 0.0 0.0 0.0 99.55321 -11.5855 -0.221272 9.07603 -1.03187 35.131 0.0 19.4288 0.0 -16.0467 -2.07098 -22.4799 0.0 0.0 0.0 0.0 0.0 0.0 4.21915 -5.18135 -2.47228 0.0 8.4912 0.0 9.06508 7.63363 0.157428 0.0 -36.2224 0.0 2.39101 -2.69567 5.18601 0.0 7.96418 0.0 9.47872 8.872089 -7.81923 0.0 -27.6815 0.0 
  2.5624798583984374 2.502019958496094 9.818209838867187 -146.547 83.9462 150.421 2.33095 -7.59113 -2.40346 -1.11863 4.82963 -2.56497 2.76353 36.3963 1.76943 10.5533 -50.8717 7.85468 -91.69049 -12.1854 -5.31043 -11.7204 1.71263 -29.5383 0.0 19.9981 0.0 31.1595 -6.53035 19.8028 0.0 0.0 0.0 0.0 0.0 0.0 99.54196 -11.5905 -0.211415 9.07372 -1.02913 35.1511 0.0 19.4259 0.0 -16.0755 -2.07913 -22.4775 0.0 0.0 0.0 0.0 0.0 0.0 4.22182 -5.16528 -2.4708 0.0 8.49145 0.0 9.05855 7.61571 0.17902 0.0 -36.2085 0.0 2.39008 -2.68703 5.15787 0.0 7.9536 0.0 9.4509 8.881821 -7.7751 0.0 -27.6887 0.0 
  2.5625100708007813 2.500590057373047 9.8181201171875 -146.536 83.9501 150.395 2.33244 -7.59001 -2.40307 -1.12469 4.81561 -2.56511 2.75157 36.4015 1.78613 10.553 -50.8678 7.85046 -91.69064 -12.1956 -5.30849 -11.6974 1.71253 -29.5371 0.0 20.013 0.0 31.1513 -6.54346 19.8734 0.0 0.0 0.0 0.0 0.0 0.0 99.53937 -11.5883 -0.204905 9.07118 -1.03251 35.1292 0.0 19.4354 0.0 -16.1016 -2.10225 -22.4817 0.0 0.0 0.0 0.0 0.0 0.0 4.22382 -5.14623 -2.50209 0.0 8.4825 0.0 9.05074 7.61777 0.205512 0.0 -36.2272 0.0 2.39136 -2.67564 5.1793 0.0 7.95375 0.0 9.44868 8.873011 -7.78149 0.0 -27.6896 0.0 
